<?xml version="1.0" standalone="no"?><!DOCTYPE svg PUBLIC "-//W3C//DTD SVG 1.1//EN" "http://www.w3.org/Graphics/SVG/1.1/DTD/svg11.dtd"><svg t="1737895877298" class="icon" viewBox="0 0 2798 1024" version="1.1" xmlns="http://www.w3.org/2000/svg" p-id="6355" xmlns:xlink="http://www.w3.org/1999/xlink" width="546.484375" height="200"><path d="M1143.198446 175.422804c-15.492603 21.069202-27.809131 45.702257-36.931116 73.862233 8.43876 14.71705 20.755288 20.866081 36.931116 18.465558-16.840589 22.860361-19.942803 47.493416-9.232779 73.862233a1468.547384 1468.547384 0 0 0 193.888362-240.052257 198.689407 198.689407 0 0 0 55.396675 46.163895 1507.842092 1507.842092 0 0 0-55.396675 46.163896h-18.465558a2194.410014 2194.410014 0 0 1-166.190025 175.422804c-37.060375 4.28401-61.674965-1.883487-73.862233-18.465559-19.979734 49.616955-50.76182 89.63182-92.327791 120.026129 15.991173-30.357378 25.223953-61.120998 27.698337-92.327791a205.189284 205.189284 0 0 1-83.095012 55.396674c-26.830456-24.466865-20.681425-39.848675 18.465558-46.163895L912.378968 360.078386a271.295982 271.295982 0 0 1-64.629454 55.396675l18.465558-73.862233c-29.729549-15.658793-72.828162-27.975321-129.258908-36.931116 47.271829-29.4341 102.668504-47.899658 166.190025-55.396675-63.52152-7.497017-118.918195-25.962575-166.190025-55.396675 22.306394 13.55372 46.920984 19.702751 73.862233 18.465558 4.376337-23.839036-1.772694-42.304594-18.465558-55.396675 24.614589-18.465558 24.614589-36.931117 0-55.396674 78.681744-10.156057 155.627725-10.156057 230.819478 0l36.931117-36.931117A1032.224708 1032.224708 0 0 1 1161.664004 147.724466c-10.26685 7.072309-16.434347 16.305088-18.465558 27.698338z m-129.258908 36.931116c-22.398722 50.318646-56.246091 93.417259-101.56057 129.258908 7.755534-60.437772 41.602903-103.51792 101.56057-129.258908z" fill="#f4ea2a" opacity=".007" p-id="6356"></path><path d="M792.352839 101.560571c24.614589 18.465558 24.614589 36.931117 0 55.396674 16.692865 13.092081 22.841896 31.557639 18.465558 55.396675-26.94125 1.237192-51.555839-4.911839-73.862233-18.465558-66.346751 48.693677-134.059953 48.693677-203.121141 0-65.922043 22.32486-127.467749 46.939449-184.655583 73.862233a2901.844018 2901.844018 0 0 0-110.793349-129.258908 82.227131 82.227131 0 0 1 36.931116-27.698337c172.228262-9.232779 344.567317-12.298062 517.035632-9.232779z" fill="#f4ea2a" opacity=".01" p-id="6357"></path><path d="M1217.060679 101.560571c19.83201 13.849169 22.897292 32.314727 9.232779 55.396674a91.072133 91.072133 0 0 1-9.232779-55.396674z" fill="#f4ea2a" opacity=".004" p-id="6358"></path><path d="M1881.820777 175.422804c18.317834-3.176076 30.615896 2.99142 36.931117 18.465558a668.693262 668.693262 0 0 0-36.931117 83.095012c-42.65544 9.177382-85.735587 12.242665-129.258908 9.232779-3.065283 110.978005 0 221.771355 9.232779 332.380049 38.888466-33.071815 85.052361-45.388342 138.491687-36.931116a755.906094 755.906094 0 0 0 9.23278 166.190024c-1.292589-64.48173 14.089221-119.878404 46.163895-166.190024 0 12.316527 6.149031 18.465558 18.465559 18.465558a2014.370821 2014.370821 0 0 0-36.931117 203.121141c-35.620062 4.985701-66.383682-4.247078-92.327791-27.698337 17.54228-56.449212 23.709777-114.911169 18.465558-175.422804-123.903896 42.932423-247.013773 73.696043-369.311166 92.327791-47.456485-16.54514-84.387601-47.30876-110.793349-92.327791a6146.3534 6146.3534 0 0 0 92.327791-73.862233v-18.465558c15.474138 6.315221 21.641634 18.613283 18.465558 36.931116a1051.225767 1051.225767 0 0 0 18.465559 73.862233c21.420048 34.659853 52.183668 43.892632 92.327791 27.698338a266.587265 266.587265 0 0 0 101.560571-46.163896c12.316527-12.316527 12.316527-24.614589 0-36.931117-18.668679 15.455672-40.217986 21.604703-64.629454 18.465559 6.093634-129.849806-0.055397-259.108714-18.465559-387.776724a311.495503 311.495503 0 0 0-18.465558 147.724466h-73.862233c9.380504-32.000812 24.762314-38.149843 46.163896-18.465558a1125.291121 1125.291121 0 0 0 9.232779-203.121141 126.396746 126.396746 0 0 0 73.862233-18.465558 289.041384 289.041384 0 0 0 73.862233 46.163895c-25.131625 29.249444-37.448152 63.115278-36.931117 101.560571 55.156623 2.806765 104.404266 8.955796 147.724467 18.465558a2054.293358 2054.293358 0 0 1 36.931116-92.327791z" fill="#f4ea2a" opacity=".007" p-id="6359"></path><path d="M1826.424102 138.491687c2.954489 31.391449-0.129259 62.155069-9.232779 92.327791-38.131378-36.026304-35.04763-66.80839 9.232779-92.327791z" fill="#f4ea2a" opacity=".004" p-id="6360"></path><path d="M1143.198446 175.422804c24.614589 12.316527 24.614589 12.316527 0 0z" fill="#f4ea2a" opacity=".004" p-id="6361"></path><path d="M1530.97517 175.422804c24.614589 12.316527 24.614589 12.316527 0 0z" fill="#f4ea2a" opacity=".004" p-id="6362"></path><path d="M1198.595121 193.888362c24.614589 12.316527 24.614589 12.316527 0 0z" fill="#f4ea2a" opacity=".004" p-id="6363"></path><path d="M1143.198446 267.750595a91.072133 91.072133 0 0 1 9.232779-55.396675c13.664513 23.081948 10.59923 41.547506-9.232779 55.396675z" fill="#f4ea2a" opacity=".004" p-id="6364"></path><path d="M736.956164 193.888362c47.271829 29.4341 102.668504 47.899658 166.190025 55.396675-63.52152 7.497017-118.918195 25.962575-166.190025 55.396675l-36.931117-36.931117c-116.27762 19.130318-233.220001 19.130318-350.845607 0 57.187834-26.922784 118.73354-51.537373 184.655583-73.862233 69.061188 48.693677 136.77439 48.693677 203.121141 0z" fill="#f4ea2a" opacity=".998" p-id="6365"></path><path d="M1512.509612 286.216153c24.614589 12.316527 24.614589 12.316527 0 0z" fill="#f4ea2a" opacity=".004" p-id="6366"></path><path d="M1069.336213 193.888362c17.819264 22.546447 14.735516 47.161036-9.232779 73.862233-32.130071 45.296014-72.144936 72.994352-120.026129 83.095012 53.974827-44.612789 97.07344-96.944181 129.258908-156.957245z" fill="#f4ea2a" p-id="6367"></path><path d="M700.025047 267.750595l36.931117 36.931117c56.430746 8.955796 99.529359 21.272323 129.258908 36.931116-65.405007 5.77972-126.950713-0.369311-184.655583-18.465558a105.770718 105.770718 0 0 0 18.465558-55.396675z" fill="#f4ea2a" opacity=".994" p-id="6368"></path><path d="M1309.388471 193.888362c45.31448 79.198779 106.878651 143.828233 184.655582 193.888362-18.465558 12.316527-36.931117 12.316527-55.396674 0a1564.291304 1564.291304 0 0 0-147.724467-138.491687c-47.179501 40.605763-77.943121 89.853407-92.327791 147.724466a1337.718904 1337.718904 0 0 1 221.586699 9.232779 340.431032 340.431032 0 0 1-110.793349 9.232779c-3.933164 30.357378 2.215867 58.055715 18.465558 83.095012 48.859867 9.177382 98.107511 12.261131 147.724466 9.23278v18.465558c-54.436466-5.11496-106.730927 1.034071-156.957245 18.465558a931.421225 931.421225 0 0 0-9.232779 184.655583h-55.396675a91.072133 91.072133 0 0 1-55.396675-9.232779 282.079868 282.079868 0 0 0 83.095012-27.698338 300.065322 300.065322 0 0 0 0-147.724466 627.736654 627.736654 0 0 0-138.491687-27.698337l129.258908-18.465559c16.249691-25.039297 22.398722-52.737634 18.465558-83.095012-80.380575-24.079088-157.326557-24.079088-230.819478 0 2.382057 118.475022-13.018219 229.268372-46.163896 332.380049a1568.427589 1568.427589 0 0 0-9.232779-240.052257c-69.375102 44.428133-78.607882 32.130071-27.698337-36.931117 41.565972-30.394309 72.348057-70.409174 92.327791-120.026129 12.187268 16.582071 36.801858 22.749568 73.862233 18.465559a2194.410014 2194.410014 0 0 0 166.190025-175.422804z" fill="#f4ea2a" opacity=".998" p-id="6369"></path><path d="M1309.388471 193.888362h18.465558c48.749074 64.075487 107.211031 119.472162 175.422803 166.190024 7.072309-10.26685 16.305088-16.434347 27.698338-18.465558 19.721216 17.246831 44.335805 23.414328 73.862233 18.465558 5.872048 83.68591-0.276983 163.71564-18.465558 240.052258a1125.291121 1125.291121 0 0 0-9.232779-203.121141c-33.182608 48.102779-60.880946 97.331958-83.095013 147.724466 3.176076-18.317834-2.99142-30.615896-18.465558-36.931116a598.967314 598.967314 0 0 1-147.724466-9.23278c-16.249691-25.039297-22.398722-52.737634-18.465558-83.095012a340.431032 340.431032 0 0 0 110.793349-9.232779 1337.718904 1337.718904 0 0 0-221.586699-9.232779c14.38467-57.87106 45.14829-107.118704 92.327791-147.724466a1564.291304 1564.291304 0 0 1 147.724467 138.491687c18.465558 12.316527 36.931117 12.316527 55.396674 0-77.776931-50.060128-139.341103-114.689582-184.655582-193.888362z" fill="#f4ea2a" opacity=".006" p-id="6370"></path><path d="M349.17944 267.750595c117.625606 19.130318 234.567987 19.130318 350.845607 0a105.770718 105.770718 0 0 1-18.465558 55.396675 44.834375 44.834375 0 0 0-36.931116 9.232779c26.627335 60.345444 63.558452 112.658371 110.793349 156.957245-79.586556 2.16047-153.448789 2.16047-221.586699 0a490.038986 490.038986 0 0 0 92.327791-129.258908 485.348734 485.348734 0 0 1-147.724466-55.396674 1354.060923 1354.060923 0 0 1-129.258908 138.491687c44.686651-6.869188 81.617768-31.483777 110.79335-73.862233a340.431032 340.431032 0 0 1 110.79335-9.23278c-1.218727 78.534019-28.917064 90.850547-83.095013 36.931117-9.362038 27.624475-0.129259 49.173782 27.698338 64.629454l-18.465559 18.465558-92.327791-18.465558c64.297074 57.797197 45.831516 91.6261-55.396675 101.56057 10.303782-23.82057 28.76934-39.20238 55.396675-46.163895-42.101473-7.497017-66.716062-32.130071-73.862233-73.862233a852.831809 852.831809 0 0 1 92.327791-120.026129c-31.096-12.002613-55.710589-30.468171-73.862233-55.396675z" fill="#f4ea2a" opacity=".018" p-id="6371"></path><path d="M681.559489 323.14727c57.70487 18.096247 119.250575 24.245278 184.655583 18.465558l-18.465558 73.862233c0 12.316527-6.149031 18.465558-18.465559 18.465558-29.26791 9.26971-38.500689 27.735269-27.698337 55.396675a868.527534 868.527534 0 0 1 101.560571 64.629454c-59.551425 4.117819-108.780604-17.413021-147.724467-64.629454-47.234898-44.298874-84.166015-96.611801-110.793349-156.957245a44.834375 44.834375 0 0 1 36.931116-9.232779z" fill="#f4ea2a" p-id="6372"></path><path d="M700.025047 360.078386c127.744732-15.584931 149.294039 15.197154 64.629454 92.327792-33.274936-23.82057-54.824243-54.58419-64.629454-92.327792z" fill="#f4ea2a" opacity=".055" p-id="6373"></path><path d="M2029.545243 618.596202c18.280903-107.284894 24.429934-218.078243 18.465559-332.380049h-129.258908v-92.327791c-6.315221-15.474138-18.613283-21.641634-36.931117-18.465558-14.587791-16.637468-33.053349-28.953995-55.396675-36.931117v-55.396675c69.559758-10.59923 124.956433 10.950076 166.190025 64.629454-35.416941 32.684038-44.64972 72.698903-27.698338 120.026129 33.164143-23.395862 67.011511-23.395862 101.560571 0 25.48247 96.90725 31.631501 192.300324 18.465558 286.216153a564.418254 564.418254 0 0 0 36.931117 129.258908c-8.457226 71.184727-26.922784 77.333758-55.396675 18.465559a72.828162 72.828162 0 0 1 18.465558-36.931117c-26.627335-6.961515-45.092893-22.343326-55.396675-46.163896z" fill="#f4ea2a" opacity=".014" p-id="6374"></path><path d="M533.835023 489.337294a14919.543258 14919.543258 0 0 1-92.327791 73.862233c-33.865834 18.354765-64.64792 18.354765-92.327792 0 101.22819-9.93447 119.693749-43.763373 55.396675-101.56057l92.327791 18.465558 18.465559-18.465558c-27.827596-15.455672-37.060375-37.004979-27.698338-64.629454 54.177948 53.91943 81.876285 41.602903 83.095013-36.931117a340.431032 340.431032 0 0 0-110.79335 9.23278c-29.175582 42.378456-66.106699 66.993045-110.79335 73.862233a1354.060923 1354.060923 0 0 0 129.258908-138.491687 485.348734 485.348734 0 0 0 147.724466 55.396674 490.038986 490.038986 0 0 1-92.327791 129.258908z" fill="#f4ea2a" opacity=".998" p-id="6375"></path><path d="M1253.991796 729.389552l-18.465559 36.931116c-68.544152-12.55658-136.257355-0.240052-203.121141 36.931117-16.360485-15.234086-22.509516-33.699644-18.465558-55.396675 33.145677-103.111677 48.545953-213.905027 46.163896-332.380049 73.492922-24.079088 150.438903-24.079088 230.819478 0 3.933164 30.357378-2.215867 58.055715-18.465558 83.095012l-129.258908 18.465559c47.918124 4.173216 94.082019 13.405995 138.491687 27.698337a300.065322 300.065322 0 0 1 0 147.724466 282.079868 282.079868 0 0 1-83.095012 27.698338c17.505349 8.918865 35.970908 12.002613 55.396675 9.232779z" fill="#f4ea2a" opacity=".016" p-id="6376"></path><path d="M1918.751894 193.888362v92.327791h129.258908c5.964375 114.301806-0.184656 225.095155-18.465559 332.380049a105.770718 105.770718 0 0 0-55.396674-18.465558c-12.316527 0-18.465558-6.149031-18.465559-18.465558-32.074675 46.31162-47.456485 101.708295-46.163895 166.190024a755.906094 755.906094 0 0 1-9.23278-166.190024c-53.439326-8.457226-99.603221 3.859302-138.491687 36.931116-9.232779-110.608694-12.298062-221.402044-9.232779-332.380049 43.523321 3.009886 86.603468-0.055397 129.258908-9.232779a668.693262 668.693262 0 0 1 36.931117-83.095012z" fill="#f4ea2a" opacity=".998" p-id="6377"></path><path d="M1771.027427 452.406178h110.79335v92.327791h-110.79335v-92.327791z" fill="#f4ea2a" opacity=".01" p-id="6378"></path><path d="M1771.027427 323.14727h110.79335v92.327791h-110.79335v-92.327791z" fill="#f4ea2a" opacity=".008" p-id="6379"></path><path d="M349.17944 563.199527c27.679872 18.354765 58.461958 18.354765 92.327792 0 137.10677-6.149031 260.216647 0 369.311165 18.465559a3341.34277 3341.34277 0 0 0-350.845607 9.232779c55.064295 9.195848 110.46097 12.279596 166.190024 9.232779 17.099107 80.989939-13.682979 124.088552-92.327791 129.258908 0 12.316527-6.149031 18.465558-18.465558 18.465558-44.742048-24.245278-90.905943-18.096247-138.491687 18.465558a128.797269 128.797269 0 0 0-46.163896-64.629453c19.628888-21.937083 44.261943-31.169862 73.862233-27.698338-39.294708 14.403135-42.378456 32.868694-9.232779 55.396675a266.587265 266.587265 0 0 1 101.56057-46.163896c22.361791-16.489744 22.361791-31.871554 0-46.163895a334.005018 334.005018 0 0 0-64.629454 36.931116c-7.367758-4.210147-10.43304-10.377644-9.232779-18.465558-6.149031-24.614589-12.316527-24.614589-18.465558 0-27.292095 4.837976-51.906684-1.311055-73.862233-18.465558a591.821143 591.821143 0 0 1 18.465558-73.862234z" fill="#f4ea2a" opacity=".007" p-id="6380"></path><path d="M810.818397 581.665086c-51.463511 18.04085-106.860186 24.189881-166.190024 18.465558v129.258908h-110.79335c78.644813-5.170356 109.426898-48.268969 92.327791-129.258908a755.906094 755.906094 0 0 1-166.190024-9.232779 3341.34277 3341.34277 0 0 1 350.845607-9.232779z" fill="#f4ea2a" opacity=".997" p-id="6381"></path><path d="M829.283955 433.940619c26.498076 11.005473 57.280162 11.005473 92.327792 0a91.072133 91.072133 0 0 0 9.232779 55.396675c12.371924-13.8861 27.7722-20.053596 46.163896-18.465558-50.909544 69.061188-41.676765 81.35925 27.698337 36.931117 9.214314 79.771212 12.298062 159.800941 9.232779 240.052257-15.086361-45.591463-24.31914-94.820642-27.698337-147.724466l-18.465559 55.396675c-23.857501-23.839036-45.388342-23.839036-64.629453 0-40.587297-1.680366-46.736328 10.617696-18.465559 36.931116 18.871801 25.704057 12.72277 50.318646-18.465558 73.862233-41.104333-44.723582-84.202946-44.723582-129.258908 0a847.513728 847.513728 0 0 1-221.586699-18.465558c12.316527 0 18.465558-6.149031 18.465558-18.465558h110.79335v-129.258908c59.329839 5.724323 114.726514-0.424708 166.190024-18.465558-109.094518-18.465558-232.204395-24.614589-369.311165-18.465559a14919.543258 14919.543258 0 0 0 92.327791-73.862233c68.13791 2.16047 142.000143 2.16047 221.586699 0 38.943862 47.216433 88.173041 68.747273 147.724467 64.629454a868.527534 868.527534 0 0 0-101.560571-64.629454c-10.802352-27.661406-1.569572-46.126965 27.698337-55.396675z" fill="#f4ea2a" opacity=".022" p-id="6382"></path><path d="M1512.509612 618.596202c22.306394-13.55372 46.920984-19.702751 73.862233-18.465558 18.188575-76.336618 24.337606-156.366347 18.465558-240.052258-29.526428 4.94877-54.141017-1.218727-73.862233-18.465558h73.862233a311.495503 311.495503 0 0 1 18.465558-147.724466 2052.003629 2052.003629 0 0 1 18.465559 387.776724c24.411468 3.139145 45.960775-3.009886 64.629454-18.465559 12.316527 12.316527 12.316527 24.614589 0 36.931117a266.587265 266.587265 0 0 1-101.560571 46.163896c-40.144124 16.194295-70.907744 6.961515-92.327791-27.698338z" fill="#f4ea2a" opacity=".999" p-id="6383"></path><path d="M1106.26733 710.923994c10.156057-51.0942 34.789112-94.174347 73.862233-129.258908 1.347986 52.294461-23.266603 95.393074-73.862233 129.258908z" fill="#f4ea2a" p-id="6384"></path><path d="M1475.578495 526.268411a6146.3534 6146.3534 0 0 1-92.327791 73.862233c26.405748 45.019031 63.336865 75.782651 110.793349 92.327791-24.356071 41.252057-61.287188 65.885112-110.793349 73.862233-50.318646-22.583378-99.547825-22.583378-147.724467 0l18.465559-36.931116h55.396675c-3.046817-61.85962 0.036931-123.405326 9.232779-184.655583 50.226319-17.431487 102.52078-23.580518 156.957245-18.465558z" fill="#f4ea2a" opacity=".006" p-id="6385"></path><path d="M884.68063 692.458435c-5.225753 14.587791-14.458532 26.885853-27.698337 36.931117a1191.102371 1191.102371 0 0 1-120.026129-73.862233l9.232779-18.465558a384.305199 384.305199 0 0 0 138.491687 55.396674z" fill="#f4ea2a" opacity=".999" p-id="6386"></path><path d="M903.146189 655.527319c24.614589 12.316527 24.614589 12.316527 0 0z" fill="#f4ea2a" opacity=".004" p-id="6387"></path><path d="M293.782765 655.527319c18.927197 7.330827 22.010945 19.628888 9.23278 36.931116a44.834375 44.834375 0 0 1-9.23278-36.931116z" fill="#f4ea2a" opacity=".004" p-id="6388"></path><path d="M404.576115 673.992877v-18.465558h18.465558c-1.200261 8.087915 1.865021 14.255411 9.232779 18.465558a334.005018 334.005018 0 0 1 64.629454-36.931116c22.361791 14.292342 22.361791 29.674152 0 46.163895a266.587265 266.587265 0 0 0-101.56057 46.163896c-33.145677-22.527981-30.061929-40.993539 9.232779-55.396675z" fill="#f4ea2a" opacity=".996" p-id="6389"></path></svg>